<svg width="195" height="195" viewBox="0 0 127 91" fill="none" xmlns="http://www.w3.org/2000/svg">
<path d="M0 79.5712C0 73.1349 4.43812 68.9536 9.06115 68.9536C12.0199 68.9536 14.6088 70.433 16.0522 72.9089L16.5351 69.4313H20.1616V89.6237H16.5351L16.0522 86.1462C14.6088 88.6221 12.0199 90.1066 9.06115 90.1066C4.43812 90.1066 0 85.9253 0 79.566L0 79.5712ZM15.9033 79.5352C15.9033 75.6878 13.3863 72.95 10.1707 72.95C6.9551 72.95 4.3662 75.6878 4.3662 79.5352C4.3662 83.3826 6.88319 86.1205 10.1707 86.1205C13.4582 86.1205 15.9033 83.4186 15.9033 79.5352Z" fill="#EA702B"/>
<path d="M37.2052 89.6344L28.7347 79.5356V89.6344H24.3685V60.0059H28.7347V78.7959L37.0562 69.4369H42.383L33.6557 79.0528L42.7169 89.6293H37.2052V89.6344Z" fill="#EA702B"/>
<path d="M44.0114 81.7184V69.4365H48.3776V81.7544C48.3776 84.5282 49.9288 86.1206 52.5588 86.1206C55.1888 86.1206 56.925 84.5282 56.925 81.7184V69.4365H61.2912V81.6773C61.2912 86.6342 57.9627 90.1118 52.564 90.1118C47.1653 90.1118 44.0216 86.6342 44.0216 81.7133L44.0114 81.7184Z" fill="#EA702B"/>
<path d="M82.511 76.2069V89.6342H78.1448V77.6143C78.1448 74.5066 76.7373 73.0273 74.0405 73.0273C71.5235 73.0273 69.6024 74.8765 69.6024 77.4294V89.6342H65.2362V69.4418H68.6008L69.0836 72.4365H69.1966C70.3421 70.5514 72.5252 68.959 75.335 68.959C79.7371 68.959 82.511 71.7688 82.511 76.2069Z" fill="#EA702B"/>
<path d="M85.3567 79.5712C85.3567 73.1349 89.7948 68.9536 94.4178 68.9536C97.3766 68.9536 99.9655 70.433 101.409 72.9089L101.892 69.4313H105.518V89.6237H101.892L101.409 86.1462C99.9655 88.6221 97.3766 90.1066 94.4178 90.1066C89.7948 90.1066 85.3567 85.9253 85.3567 79.566V79.5712ZM101.26 79.5352C101.26 75.6878 98.743 72.95 95.5274 72.95C92.3118 72.95 89.7229 75.6878 89.7229 79.5352C89.7229 83.3826 92.2399 86.1205 95.5274 86.1205C98.8149 86.1205 101.26 83.4186 101.26 79.5352Z" fill="#EA702B"/>
<path d="M114.097 71.6968H114.168C115.314 70.1044 117.384 68.9589 119.788 68.9589C124.19 68.9589 127 71.5118 127 76.2427V89.6341H122.634V77.5783C122.634 74.4706 121.303 72.9552 118.565 72.9552C116.126 72.9552 114.091 74.3987 114.091 77.3215V89.6393H109.725V60.0107H114.091V71.6968H114.097Z" fill="#EA702B"/>
<path d="M64.964 34.7228C64.6352 33.6595 65.226 32.5243 66.2893 32.1955C67.3526 31.8617 68.4826 32.4524 68.8114 33.5157C69.1453 34.579 68.5545 35.7091 67.4912 36.0429C67.2909 36.1046 67.0906 36.1354 66.8903 36.1354C66.0324 36.1354 65.2362 35.5806 64.964 34.7228ZM60.2177 35.9453C59.1646 35.5858 58.6047 34.4403 58.9643 33.3821C59.3239 32.3291 60.4694 31.7692 61.5224 32.1288C62.5754 32.4935 63.1405 33.639 62.7757 34.692C62.4881 35.5293 61.7073 36.0532 60.87 36.0532C60.6543 36.0532 60.4334 36.0173 60.2177 35.9453ZM70.5938 32.2418C69.6949 31.5791 69.5048 30.3206 70.1623 29.4217C70.825 28.5228 72.0835 28.3327 72.9824 28.9902C73.8762 29.6529 74.0714 30.9165 73.4087 31.8103C73.0132 32.3496 72.4019 32.6322 71.7855 32.6322C71.3695 32.6322 70.9534 32.5037 70.5938 32.2418ZM54.4132 31.5586C53.7762 30.6443 54.0023 29.3909 54.9166 28.754C55.8309 28.117 57.0894 28.343 57.7212 29.2573C58.3582 30.1717 58.1322 31.425 57.2178 32.062C56.8685 32.3086 56.4679 32.4216 56.0723 32.4216C55.4303 32.4216 54.8036 32.1236 54.4132 31.5586ZM71.6468 24.8963C71.6468 23.7868 72.5458 22.8827 73.6604 22.8827C74.7751 22.8827 75.674 23.7868 75.674 24.8963C75.674 26.011 74.7751 26.915 73.6604 26.915C72.5458 26.915 71.6468 26.011 71.6468 24.8963ZM54.295 26.6582C53.1804 26.6274 52.302 25.7027 52.3328 24.5881C52.3585 23.4786 53.2831 22.595 54.3978 22.6259C55.5124 22.6567 56.3908 23.5813 56.36 24.696C56.3343 25.7901 55.4354 26.6582 54.3464 26.6582H54.295ZM70.3935 20.7099C69.7822 19.775 70.0442 18.5268 70.9739 17.9155C71.9037 17.3042 73.1519 17.5611 73.7632 18.4959C74.3744 19.4257 74.1176 20.6739 73.1879 21.2852C72.8437 21.5112 72.4584 21.6191 72.0835 21.6191C71.426 21.6191 70.7839 21.2955 70.3935 20.7099ZM55.1323 20.566C54.2539 19.8829 54.0947 18.6141 54.7779 17.7357C55.4662 16.8573 56.7298 16.6981 57.6082 17.3813C58.4866 18.0645 58.6458 19.3332 57.9627 20.2116C57.5671 20.7253 56.9713 20.9924 56.3703 20.9924C55.9388 20.9924 55.5022 20.8537 55.1323 20.566ZM66.6745 17.7357C65.6266 17.3453 65.0975 16.1844 65.4879 15.1417C65.8732 14.0989 67.0392 13.5647 68.0768 13.9551C69.1247 14.3455 69.6538 15.5064 69.2634 16.5491C68.9603 17.3607 68.195 17.859 67.3782 17.859C67.142 17.859 66.9057 17.8179 66.6745 17.7357ZM59.4215 16.1536C59.1184 15.0852 59.74 13.9705 60.8084 13.6674C61.882 13.3592 62.9966 13.9859 63.2997 15.0543C63.6028 16.1279 62.9812 17.2426 61.9128 17.5457C61.7279 17.597 61.5429 17.6227 61.358 17.6227C60.4796 17.6227 59.6732 17.0423 59.4215 16.1536Z" fill="#EA702B"/>
<path d="M63.4332 41.5134C63.3356 40.4039 64.1575 39.4227 65.267 39.3303C66.3765 39.2327 67.3525 40.0546 67.4501 41.1641C67.5477 42.2736 66.7207 43.2496 65.6163 43.3472C65.5547 43.3523 65.4982 43.3523 65.4365 43.3523C64.404 43.3523 63.5205 42.5613 63.4332 41.5134ZM58.8204 42.6794C57.752 42.3661 57.1356 41.2514 57.4489 40.183C57.7571 39.1145 58.8769 38.4981 59.9454 38.8115C61.0138 39.1197 61.6302 40.2395 61.322 41.3079C61.0652 42.1863 60.2587 42.7616 59.3855 42.7616C59.2006 42.7616 59.0105 42.7359 58.8204 42.6794ZM69.4945 40.5939C69.0014 39.5974 69.4123 38.3851 70.4089 37.892C71.4054 37.3989 72.6176 37.8098 73.1108 38.8063C73.6039 39.808 73.193 41.0151 72.1964 41.5082C71.9088 41.6521 71.6006 41.7189 71.3026 41.7189C70.5578 41.7189 69.8438 41.3028 69.4945 40.5939ZM52.7283 39.5871C51.8448 38.9091 51.6804 37.6454 52.3585 36.7619C53.0365 35.8784 54.3001 35.714 55.1837 36.3921C56.0672 37.0701 56.2315 38.3338 55.5535 39.2173C55.158 39.7361 54.557 40.0083 53.956 40.0083C53.5245 40.0083 53.093 39.8696 52.7283 39.5871ZM74.8059 37.5324C73.984 36.7773 73.9275 35.5034 74.6826 34.6816C75.4326 33.8648 76.7116 33.8083 77.5283 34.5583C78.3502 35.3134 78.4067 36.5873 77.6516 37.4092C77.2561 37.8406 76.7116 38.0615 76.1671 38.0615C75.6791 38.0615 75.1911 37.8869 74.8059 37.5324ZM48.172 34.5069C47.5916 33.5566 47.8947 32.3135 48.845 31.7382C49.7952 31.1578 51.0383 31.4608 51.6136 32.4111C52.1941 33.3614 51.891 34.6045 50.9407 35.185C50.612 35.3802 50.2524 35.4778 49.8928 35.4778C49.2148 35.4778 48.547 35.1336 48.172 34.5069ZM78.6533 32.7604C77.6157 32.3546 77.102 31.1886 77.5078 30.151C77.9085 29.1134 79.0796 28.5997 80.1172 29.0004C81.1549 29.4062 81.6685 30.5722 81.2627 31.6098C80.9545 32.4111 80.1892 32.8991 79.3827 32.8991C79.1413 32.8991 78.8947 32.8529 78.6533 32.7604ZM45.7629 28.1117C45.5677 27.0176 46.3023 25.9697 47.4015 25.7796C48.4957 25.5844 49.5435 26.319 49.7336 27.4183C49.9288 28.5124 49.1943 29.5603 48.095 29.7503C47.9769 29.7709 47.8638 29.7811 47.7457 29.7811C46.7851 29.7811 45.9376 29.0928 45.7629 28.1117ZM78.4889 24.8961C78.4889 23.7866 79.3878 22.8825 80.5025 22.8825C81.6172 22.8825 82.5212 23.7866 82.5212 24.8961C82.5212 26.0108 81.6172 26.9149 80.5025 26.9149C79.3878 26.9149 78.4889 26.0108 78.4889 24.8961ZM47.4221 23.6582C46.3331 23.4424 45.6191 22.3843 45.8348 21.2902C46.0506 20.196 47.1139 19.4872 48.2029 19.7029C49.297 19.9187 50.0059 20.9768 49.7901 22.0709C49.6001 23.0315 48.7576 23.6941 47.8176 23.6941C47.6841 23.6941 47.5556 23.6839 47.4221 23.6582ZM77.6157 19.9392C77.2356 18.8913 77.7749 17.7356 78.8228 17.3554C79.8655 16.9753 81.0264 17.5147 81.4066 18.5626C81.7867 19.6053 81.2473 20.7611 80.1994 21.1463C79.9734 21.2285 79.7423 21.2645 79.5111 21.2645C78.6892 21.2645 77.9136 20.7611 77.6157 19.9392ZM48.9991 17.7304C48.059 17.1346 47.7817 15.8863 48.3827 14.9463C48.9836 14.0114 50.2267 13.7341 51.1667 14.3351C52.1068 14.9309 52.379 16.1791 51.7832 17.1192C51.3979 17.7201 50.7455 18.0489 50.0829 18.0489C49.7079 18.0489 49.3329 17.9462 48.9991 17.7304ZM74.8932 15.347C74.1587 14.5097 74.2408 13.2358 75.0781 12.5013C75.9154 11.7667 77.1893 11.8489 77.9239 12.6862C78.6584 13.5235 78.5711 14.7974 77.7389 15.5319C77.3537 15.8658 76.8811 16.0302 76.4085 16.0302C75.8486 16.0302 75.2887 15.799 74.8932 15.347ZM52.6153 12.7838C51.9578 11.8848 52.153 10.6264 53.0519 9.96372C53.9457 9.30622 55.2093 9.50141 55.8668 10.3952C56.5243 11.2941 56.3343 12.5578 55.4354 13.2153C55.0758 13.4772 54.6597 13.6056 54.2436 13.6056C53.6221 13.6056 53.0108 13.3231 52.6153 12.7838ZM70.6914 12.0441C69.7 11.5304 69.3199 10.313 69.8335 9.32676C70.3472 8.33538 71.5646 7.95526 72.556 8.46893C73.5423 8.9826 73.9224 10.2051 73.4087 11.1914C73.0491 11.8797 72.3454 12.2752 71.6211 12.2752C71.3078 12.2752 70.9893 12.1982 70.6914 12.0441ZM57.7828 9.47573C57.4952 8.40216 58.1321 7.29263 59.2057 7.01011C60.2844 6.71732 61.3888 7.3594 61.6765 8.43298C61.9641 9.51169 61.322 10.6161 60.2485 10.9037C60.0738 10.95 59.8992 10.9705 59.7296 10.9705C58.8359 10.9705 58.0243 10.3747 57.7828 9.47573ZM65.5804 10.4979C64.4708 10.3798 63.6746 9.38327 63.7928 8.27374C63.9109 7.16935 64.9074 6.36802 66.0118 6.48616C67.1214 6.60944 67.9176 7.60083 67.7994 8.71036C67.6864 9.74284 66.8132 10.5082 65.7961 10.5082C65.7242 10.5082 65.6523 10.5031 65.5804 10.4979Z" fill="#EA702B"/>
<path d="M62.2672 49.7836C61.1525 49.7065 60.3152 48.7408 60.3923 47.6313C60.4693 46.5218 61.4299 45.6845 62.5394 45.7564C63.6541 45.8334 64.4914 46.7991 64.4143 47.9087C64.3424 48.972 63.4538 49.7836 62.4059 49.7836H62.2672ZM66.6642 47.7597C66.4382 46.6707 67.1419 45.6074 68.2309 45.3814C69.325 45.1554 70.3883 45.8591 70.6143 46.9481C70.8352 48.0422 70.1366 49.1055 69.0425 49.3315C68.9089 49.3572 68.7703 49.3726 68.6367 49.3726C67.7018 49.3726 66.8594 48.7151 66.6642 47.7597ZM55.6049 48.3915C54.5518 48.0165 54.0074 46.8659 54.3823 45.8129C54.7573 44.765 55.9079 44.2205 56.9558 44.5955C58.0037 44.9705 58.5533 46.1211 58.1784 47.1741C57.8856 47.996 57.1048 48.5097 56.2778 48.5097C56.0518 48.5097 55.8257 48.4737 55.5997 48.3915H55.6049ZM72.7409 46.1981C72.2273 45.2068 72.6125 43.9894 73.6039 43.4808C74.5901 42.9671 75.8075 43.3524 76.3212 44.3438C76.8298 45.33 76.4445 46.5474 75.4582 47.0611C75.1603 47.2152 74.847 47.2871 74.5336 47.2871C73.8042 47.2871 73.1005 46.8865 72.7409 46.1981ZM49.5744 45.2478C48.6652 44.6006 48.4546 43.3421 49.0967 42.4329C49.7439 41.5289 51.0024 41.3131 51.9116 41.9604C52.8156 42.6024 53.0314 43.8609 52.3842 44.7701C51.9938 45.3249 51.3722 45.6177 50.7404 45.6177C50.3346 45.6177 49.9288 45.4995 49.5744 45.2478ZM78.1653 43.0442C77.4051 42.2275 77.4462 40.9536 78.2629 40.1933C79.0745 39.4331 80.3535 39.4793 81.1086 40.2909C81.8689 41.1025 81.8278 42.3816 81.011 43.1418C80.6258 43.5014 80.1275 43.6811 79.6344 43.6811C79.1002 43.6811 78.5608 43.4654 78.1653 43.0442ZM44.6174 40.594C43.9189 39.731 44.0473 38.4623 44.9154 37.7585C45.7783 37.0599 47.0471 37.1935 47.7508 38.0564C48.4494 38.9194 48.3159 40.1882 47.4529 40.8919C47.0779 41.195 46.631 41.3439 46.1841 41.3439C45.5986 41.3439 45.013 41.0871 44.6174 40.594ZM82.5366 38.5444C81.5863 37.964 81.2884 36.7209 81.8689 35.7706C82.4493 34.8203 83.6873 34.5224 84.6376 35.1028C85.5878 35.6833 85.8858 36.9212 85.3105 37.8715C84.9303 38.4931 84.2677 38.8372 83.5845 38.8372C83.2301 38.8372 82.8654 38.7448 82.5366 38.5444ZM41.0937 34.7792C40.6519 33.757 41.1245 32.5704 42.1467 32.1287C43.1689 31.6869 44.3555 32.1595 44.7972 33.1817C45.239 34.2039 44.7664 35.3905 43.7442 35.8323C43.4822 35.9453 43.2151 35.9966 42.948 35.9966C42.1672 35.9966 41.4224 35.5395 41.0937 34.7792ZM85.5416 33.0327C84.468 32.7297 83.8414 31.6202 84.1444 30.5466C84.4424 29.473 85.5519 28.8463 86.6255 29.1494C87.699 29.4473 88.3257 30.562 88.0226 31.6356C87.7761 32.5242 86.9645 33.1047 86.0861 33.1047C85.9063 33.1047 85.7214 33.0841 85.5416 33.0327ZM39.2804 28.2248C39.1314 27.1204 39.9071 26.1085 41.0115 25.9595C42.1159 25.8105 43.1278 26.5862 43.2768 27.6906C43.4206 28.795 42.6501 29.8069 41.5457 29.9559C41.4532 29.9661 41.3659 29.9713 41.2735 29.9713C40.2821 29.9713 39.414 29.2367 39.2804 28.2248ZM84.9149 24.8962C84.9149 23.7867 85.8139 22.8826 86.9285 22.8826C88.0432 22.8826 88.9421 23.7867 88.9421 24.8962C88.9421 26.0109 88.0381 26.9149 86.9234 26.9149C85.8087 26.9149 84.9098 26.0109 84.9098 24.8962H84.9149ZM41.0166 23.7045C39.9174 23.5504 39.1469 22.5333 39.301 21.4289C39.4499 20.3245 40.4721 19.5592 41.5714 19.7081C42.6758 19.8622 43.4463 20.8844 43.2922 21.9837C43.1535 22.9956 42.2905 23.725 41.2991 23.725C41.2067 23.725 41.1142 23.7148 41.0166 23.7045ZM84.1752 19.3691C83.8825 18.2904 84.5143 17.186 85.5878 16.8932C86.6614 16.5953 87.7709 17.2322 88.0637 18.3058C88.3565 19.3794 87.7247 20.4889 86.6511 20.7817C86.4714 20.8279 86.2916 20.8536 86.1169 20.8536C85.2334 20.8536 84.4167 20.2629 84.1752 19.3691ZM42.1878 17.5404C41.1707 17.0884 40.7033 15.9018 41.1502 14.8796C41.5971 13.8626 42.7888 13.4002 43.811 13.8471C44.8281 14.294 45.2904 15.4806 44.8435 16.5028C44.5096 17.2579 43.7699 17.7099 42.9942 17.7099C42.7271 17.7099 42.4498 17.6534 42.1878 17.5404ZM81.9305 14.1297C81.3552 13.1742 81.6634 11.9363 82.6188 11.3661C83.5691 10.7908 84.8122 11.099 85.3824 12.0493H85.3875C85.9577 13.0047 85.6495 14.2427 84.6992 14.818C84.3704 15.0132 84.016 15.1056 83.6616 15.1056C82.9784 15.1056 82.3106 14.7563 81.9305 14.1297ZM44.9924 11.9209C44.1295 11.2171 44.0062 9.94838 44.7099 9.08541C45.4188 8.22758 46.6875 8.09916 47.5505 8.80803C48.4083 9.51176 48.5316 10.7857 47.8279 11.6435C47.4272 12.1315 46.8519 12.3832 46.2663 12.3832C45.8194 12.3832 45.3674 12.2291 44.9924 11.9209ZM78.3502 9.69155C77.5386 8.92618 77.5027 7.64713 78.268 6.84067C79.0283 6.02907 80.3022 5.99311 81.1138 6.75848C81.9254 7.51872 81.9613 8.79776 81.196 9.60422C80.8004 10.0254 80.2662 10.2412 79.732 10.2412C79.2337 10.2412 78.7355 10.0563 78.3451 9.69155H78.3502ZM49.2045 7.27215C48.5624 6.36296 48.7833 5.10446 49.6977 4.46237C50.6069 3.82542 51.8653 4.0463 52.5023 4.9555C53.1444 5.86983 52.9235 7.12833 52.0092 7.76528C51.6599 8.01184 51.2541 8.12998 50.8534 8.12998C50.2165 8.12998 49.5949 7.83206 49.2045 7.27215ZM73.7118 6.37323C72.7255 5.85442 72.3454 4.63702 72.8642 3.65077C73.383 2.66453 74.6004 2.28441 75.5867 2.80322C76.5729 3.32203 76.953 4.53942 76.4342 5.52567C76.0747 6.21399 75.3709 6.60438 74.6467 6.60438C74.3333 6.60438 74.0097 6.53247 73.7118 6.37323ZM54.5056 3.92302C54.1409 2.87513 54.6905 1.72451 55.7436 1.35467C56.7914 0.984822 57.9421 1.53959 58.3119 2.59261C58.6818 3.6405 58.127 4.79112 57.0791 5.16097C56.8582 5.23802 56.6322 5.27397 56.4113 5.27397C55.5792 5.27397 54.7984 4.75517 54.5056 3.92302ZM68.3542 4.44183C67.2601 4.21068 66.5666 3.14224 66.7978 2.04812C67.0289 0.959139 68.0973 0.265683 69.1863 0.496835C70.2753 0.727987 70.9739 1.79642 70.7428 2.8854C70.5424 3.8357 69.7051 4.48292 68.7703 4.48292C68.6316 4.48292 68.4929 4.46751 68.3542 4.44183ZM60.5258 2.14572C60.4539 1.03105 61.2963 0.0756248 62.4059 0.00371084C63.5205 -0.0630664 64.476 0.779354 64.5479 1.88888C64.6147 3.00355 63.7722 3.95898 62.6627 4.03089H62.5343C61.4761 4.03089 60.5926 3.21415 60.5258 2.14572Z" fill="#EA702B"/>
</svg>
