<?xml version="1.0" encoding="UTF-8"?>
<svg version="1.1" xmlns="http://www.w3.org/2000/svg" width="356" height="104">
<path d="M0 0 C2.31 0 4.62 0 7 0 C7.33 4.29 7.66 8.58 8 13 C8.66 12.67 9.32 12.34 10 12 C14.85292492 11.33260365 17.99885712 11.24914284 22 14.25 C24.80779575 18.11071915 25.12778196 21.06601379 25.09765625 25.765625 C25.09443359 26.65507813 25.09121094 27.54453125 25.08789062 28.4609375 C25.07951172 29.38132812 25.07113281 30.30171875 25.0625 31.25 C25.05798828 32.18585937 25.05347656 33.12171875 25.04882812 34.0859375 C25.03706918 36.39069041 25.02063426 38.69531227 25 41 C22.69 41 20.38 41 18 41 C17.98018066 40.44014404 17.96036133 39.88028809 17.93994141 39.3034668 C17.84462217 36.76434146 17.73497247 34.22603112 17.625 31.6875 C17.5940625 30.80642578 17.563125 29.92535156 17.53125 29.01757812 C17.49257813 28.17001953 17.45390625 27.32246094 17.4140625 26.44921875 C17.36693115 25.27879028 17.36693115 25.27879028 17.31884766 24.0847168 C17.10412111 21.69844232 17.10412111 21.69844232 15 19 C11.18186553 19.27540704 11.18186553 19.27540704 8 21 C7.84344973 22.48638992 7.74933057 23.97949127 7.68359375 25.47265625 C7.64169922 26.37177734 7.59980469 27.27089844 7.55664062 28.19726562 C7.49766602 29.61555664 7.49766602 29.61555664 7.4375 31.0625 C7.37272461 32.4865918 7.37272461 32.4865918 7.30664062 33.93945312 C7.20020724 36.29281353 7.09818992 38.64628354 7 41 C4.69 41 2.38 41 0 41 C0 27.47 0 13.94 0 0 Z " fill="#F8CA0F" transform="translate(281,21)"/>
<path d="M0 0 C2.31 0 4.62 0 7 0 C7.33 7.59 7.66 15.18 8 23 C12.74588965 17.68825535 12.74588965 17.68825535 17 12 C18.9453125 11.70703125 18.9453125 11.70703125 21.125 11.8125 C22.40375 11.874375 23.6825 11.93625 25 12 C23.19925419 16.07441476 20.51125185 18.81273276 17.4609375 22 C15.60676106 24.12554452 15.60676106 24.12554452 16 28 C17.93980513 30.56949522 17.93980513 30.56949522 20.4375 33.0625 C24.90335463 37.7100639 24.90335463 37.7100639 26 41 C20.4507772 41.96891192 20.4507772 41.96891192 17 41 C13.48356078 37.68947839 10.72850186 33.97342115 8 30 C7.67 33.63 7.34 37.26 7 41 C4.69 41 2.38 41 0 41 C0 27.47 0 13.94 0 0 Z " fill="#EE921F" transform="translate(165,21)"/>
<path d="M0 0 C2.5 1.5 2.5 1.5 4 3 C4.66 2.01 5.32 1.02 6 0 C7.65 0 9.3 0 11 0 C11 9.57 11 19.14 11 29 C9.02 29 7.04 29 5 29 C4.67 28.34 4.34 27.68 4 27 C3.01 27.53625 2.02 28.0725 1 28.625 C-2.7327235 30.20422917 -5.29288495 30.13170079 -9.13671875 28.9375 C-13.29578605 26.84488752 -15.54325686 23.37022943 -17 19 C-17.77158795 12.47312484 -16.91833416 8.29504617 -13 3 C-8.83513163 -0.58641443 -5.26819083 -0.50173246 0 0 Z M-7.75 8.0625 C-10.26140673 10.86015312 -10.26140673 10.86015312 -10.5625 14.5 C-9.90584108 18.58587774 -9.12212113 20.28868428 -6 23 C-3 23.75 -3 23.75 0 23 C2.66026374 21.05872646 3.76393878 19.65759911 4.875 16.5625 C5.02766038 13.43296231 4.51359874 11.73889296 3 9 C-0.65973601 5.46225519 -3.47917708 4.85938281 -7.75 8.0625 Z " fill="#EC8223" transform="translate(149,33)"/>
<path d="M0 0 C2.5 1.5 2.5 1.5 4 3 C4.66 2.01 5.32 1.02 6 0 C7.65 0 9.3 0 11 0 C11 9.57 11 19.14 11 29 C9.02 29 7.04 29 5 29 C4.67 28.34 4.34 27.68 4 27 C3.01 27.53625 2.02 28.0725 1 28.625 C-2.7327235 30.20422917 -5.29288495 30.13170079 -9.13671875 28.9375 C-13.29578605 26.84488752 -15.54325686 23.37022943 -17 19 C-17.84815868 12.85690782 -16.86581452 8.7949944 -13.484375 3.62890625 C-9.76986176 -0.44728328 -5.21050555 -0.73673132 0 0 Z M-7.75 8.0625 C-10.26140673 10.86015312 -10.26140673 10.86015312 -10.5625 14.5 C-9.90584108 18.58587774 -9.12212113 20.28868428 -6 23 C-3 23.75 -3 23.75 0 23 C2.94427735 20.93104835 3.84332955 19.49090073 4.9375 16.0625 C5.0128328 12.37119268 4.24574926 10.8873919 2 8 C-2.01780022 5.32146652 -3.84855119 5.13641339 -7.75 8.0625 Z " fill="#F7C610" transform="translate(265,33)"/>
<path d="M0 0 C1.99954746 -0.04254356 4.00041636 -0.04080783 6 0 C7.58004353 1.58004353 7.20093762 3.2468518 7.28125 5.4375 C7.31863281 6.33210938 7.35601562 7.22671875 7.39453125 8.1484375 C7.46484375 10.04947917 7.53515625 11.95052083 7.60546875 13.8515625 C7.64285156 14.74617188 7.68023437 15.64078125 7.71875 16.5625 C7.74904297 17.38878906 7.77933594 18.21507813 7.81054688 19.06640625 C7.79401659 21.00561156 7.79401659 21.00561156 9 22 C12 22.16666667 12 22.16666667 15 22 C16.61780157 20.38219843 16.22272147 18.54364482 16.31640625 16.30859375 C16.35830078 15.36435547 16.40019531 14.42011719 16.44335938 13.44726562 C16.48267578 12.45404297 16.52199219 11.46082031 16.5625 10.4375 C16.60568359 9.44041016 16.64886719 8.44332031 16.69335938 7.41601562 C16.79980298 4.9441585 16.90181928 2.4721969 17 0 C19.31 0 21.62 0 24 0 C24.08741124 3.56234428 24.14052896 7.12441108 24.1875 10.6875 C24.21263672 11.69490234 24.23777344 12.70230469 24.26367188 13.74023438 C24.35691643 23.1579348 24.35691643 23.1579348 21 27 C16.46117514 30.02588324 12.65927611 30.25310992 7.3125 29.4375 C3.38793343 27.7343862 1.55113727 25.91682489 0 22 C-0.47314667 18.19260805 -0.37845576 14.45396967 -0.25 10.625 C-0.23195312 9.60277344 -0.21390625 8.58054687 -0.1953125 7.52734375 C-0.14839491 5.01725251 -0.08276729 2.50912236 0 0 Z " fill="#F1A219" transform="translate(192,33)"/>
<path d="M0 0 C1.65 0 3.3 0 5 0 C5 0.99 5 1.98 5 3 C5.66 2.505 6.32 2.01 7 1.5 C10.80291806 -0.40145903 13.81998097 -0.78533691 18 0 C20.8100346 1.79363911 22.50940468 3.01880935 24 6 C24.08449628 7.7404417 24.10723024 9.48409722 24.09765625 11.2265625 C24.09443359 12.2578125 24.09121094 13.2890625 24.08789062 14.3515625 C24.07951172 15.43179688 24.07113281 16.51203125 24.0625 17.625 C24.05798828 18.71296875 24.05347656 19.8009375 24.04882812 20.921875 C24.03701776 23.61463789 24.02054778 26.30729188 24 29 C21.69 29 19.38 29 17 29 C16.67 21.74 16.34 14.48 16 7 C10.40347569 6.386876 10.40347569 6.386876 8.16796875 8.421875 C6.41394032 12.29364343 6.42754602 16.04260255 6.3125 20.25 C6.27833984 21.09046875 6.24417969 21.9309375 6.20898438 22.796875 C6.12676432 24.86412204 6.06169843 26.93203874 6 29 C4.02 29 2.04 29 0 29 C0 19.43 0 9.86 0 0 Z " fill="#F3B414" transform="translate(221,33)"/>
<path d="M0 0 C2.625 0.375 2.625 0.375 5 1 C5.625 3.375 5.625 3.375 6 6 C5.34 6.66 4.68 7.32 4 8 C1.375 7.625 1.375 7.625 -1 7 C-1.625 4.625 -1.625 4.625 -2 2 C-1.34 1.34 -0.68 0.68 0 0 Z " fill="#E96F29" transform="translate(48,47)"/>
<path d="M0 0 C2.625 0.375 2.625 0.375 5 1 C5.625 3.375 5.625 3.375 6 6 C5.34 6.66 4.68 7.32 4 8 C1.375 7.625 1.375 7.625 -1 7 C-1.625 4.625 -1.625 4.625 -2 2 C-1.34 1.34 -0.68 0.68 0 0 Z " fill="#EA6F2A" transform="translate(34,32)"/>
<path d="M0 0 C1.65 0.33 3.3 0.66 5 1 C5.625 3.375 5.625 3.375 6 6 C5.34 6.66 4.68 7.32 4 8 C1.375 7.625 1.375 7.625 -1 7 C-1.625 5.1875 -1.625 5.1875 -2 3 C-1.34 2.01 -0.68 1.02 0 0 Z " fill="#E96F2A" transform="translate(99,48)"/>
<path d="M0 0 C2.625 0.375 2.625 0.375 5 1 C5.625 3.375 5.625 3.375 6 6 C5.34 6.66 4.68 7.32 4 8 C1.375 7.625 1.375 7.625 -1 7 C-1.625 4.625 -1.625 4.625 -2 2 C-1.34 1.34 -0.68 0.68 0 0 Z " fill="#EA6F29" transform="translate(23,32)"/>
<path d="M0 0 C2.625 0.375 2.625 0.375 5 1 C5.625 2.8125 5.625 2.8125 6 5 C5.01 6.485 5.01 6.485 4 8 C2.35 7.67 0.7 7.34 -1 7 C-1.625 4.625 -1.625 4.625 -2 2 C-1.34 1.34 -0.68 0.68 0 0 Z " fill="#EA6F2A" transform="translate(88,28)"/>
<path d="M0 0 C0.598125 0.226875 1.19625 0.45375 1.8125 0.6875 C2.4375 3.0625 2.4375 3.0625 2.8125 5.6875 C2.1525 6.3475 1.4925 7.0075 0.8125 7.6875 C-1.8125 7.3125 -1.8125 7.3125 -4.1875 6.6875 C-4.875 4.875 -4.875 4.875 -5.1875 2.6875 C-3.58493056 0.24147296 -2.95482043 -0.4221172 0 0 Z " fill="#EA6F2A" transform="translate(91.1875,66.3125)"/>
<path d="M0 0 C2.625 0.375 2.625 0.375 5 1 C5.6875 2.8125 5.6875 2.8125 6 5 C4.8125 6.8125 4.8125 6.8125 3 8 C0.8125 7.6875 0.8125 7.6875 -1 7 C-1.625 4.625 -1.625 4.625 -2 2 C-1.34 1.34 -0.68 0.68 0 0 Z " fill="#E96F2A" transform="translate(95,58)"/>
<path d="M0 0 C0.598125 0.226875 1.19625 0.45375 1.8125 0.6875 C2.4375 3.0625 2.4375 3.0625 2.8125 5.6875 C2.1525 6.3475 1.4925 7.0075 0.8125 7.6875 C-1.8125 7.3125 -1.8125 7.3125 -4.1875 6.6875 C-4.875 4.875 -4.875 4.875 -5.1875 2.6875 C-3.58493056 0.24147296 -2.95482043 -0.4221172 0 0 Z " fill="#EA6F2A" transform="translate(59.1875,53.3125)"/>
<path d="M0 0 C1.2065625 0.0309375 1.2065625 0.0309375 2.4375 0.0625 C3.0975 1.7125 3.7575 3.3625 4.4375 5.0625 C3.4475 6.0525 2.4575 7.0425 1.4375 8.0625 C-1.0375 7.0725 -1.0375 7.0725 -3.5625 6.0625 C-3.605221 4.39638095 -3.60313832 2.72867115 -3.5625 1.0625 C-2.5625 0.0625 -2.5625 0.0625 0 0 Z " fill="#E96F29" transform="translate(89.5625,47.9375)"/>
<path d="M0 0 C0.598125 0.20625 1.19625 0.4125 1.8125 0.625 C2.4375 2.4375 2.4375 2.4375 2.8125 4.625 C1.8225 6.11 1.8225 6.11 0.8125 7.625 C-1.75 7.875 -1.75 7.875 -4.1875 7.625 C-5.1875 6.625 -5.1875 6.625 -5.4375 4.1875 C-5.355 3.341875 -5.2725 2.49625 -5.1875 1.625 C-2.1875 -0.375 -2.1875 -0.375 0 0 Z " fill="#E96F2A" transform="translate(78.1875,47.375)"/>
<path d="M0 0 C0.598125 0.226875 1.19625 0.45375 1.8125 0.6875 C2.4375 3.0625 2.4375 3.0625 2.8125 5.6875 C2.1525 6.3475 1.4925 7.0075 0.8125 7.6875 C-1.8125 7.3125 -1.8125 7.3125 -4.1875 6.6875 C-4.875 4.875 -4.875 4.875 -5.1875 2.6875 C-3.58493056 0.24147296 -2.95482043 -0.4221172 0 0 Z " fill="#EA6F2A" transform="translate(48.1875,37.3125)"/>
<path d="M0 0 C1.67542976 0.28604898 3.34385343 0.61781233 5 1 C5.33 2.65 5.66 4.3 6 6 C3.6875 7.125 3.6875 7.125 1 8 C0.01 7.34 -0.98 6.68 -2 6 C-1.125 1.125 -1.125 1.125 0 0 Z " fill="#EA6F2A" transform="translate(57,22)"/>
<path d="M0 0 C2.625 0.375 2.625 0.375 5 1 C5.6875 2.8125 5.6875 2.8125 6 5 C4.8125 6.8125 4.8125 6.8125 3 8 C0.8125 7.6875 0.8125 7.6875 -1 7 C-1.625 4.625 -1.625 4.625 -2 2 C-1.34 1.34 -0.68 0.68 0 0 Z " fill="#EA6F2A" transform="translate(45,15)"/>
<path d="M0 0 C2.5625 -0.25 2.5625 -0.25 5 0 C6 1 6 1 6.1875 3.4375 C6 6 6 6 4 8 C1.375 7.625 1.375 7.625 -1 7 C-1.625 5.1875 -1.625 5.1875 -2 3 C-1.34 2.01 -0.68 1.02 0 0 Z " fill="#E96F2A" transform="translate(31,13)"/>
<path d="M0 0 C1.67542976 0.28604898 3.34385343 0.61781233 5 1 C5.6875 2.8125 5.6875 2.8125 6 5 C4.5625 6.75 4.5625 6.75 3 8 C0.525 7.01 0.525 7.01 -2 6 C-1.125 1.125 -1.125 1.125 0 0 Z " fill="#EA6F2A" transform="translate(74,63)"/>
<path d="M0 0 C0.598125 0.226875 1.19625 0.45375 1.8125 0.6875 C2.4375 3.0625 2.4375 3.0625 2.8125 5.6875 C2.1525 6.3475 1.4925 7.0075 0.8125 7.6875 C-1.8125 7.3125 -1.8125 7.3125 -4.1875 6.6875 C-4.875 4.875 -4.875 4.875 -5.1875 2.6875 C-3.58493056 0.24147296 -2.95482043 -0.4221172 0 0 Z " fill="#E96F2A" transform="translate(34.1875,62.3125)"/>
<path d="M0 0 C2.625 0.375 2.625 0.375 5 1 C5.625 2.8125 5.625 2.8125 6 5 C5.01 6.485 5.01 6.485 4 8 C2.35 7.67 0.7 7.34 -1 7 C-1.625 4.625 -1.625 4.625 -2 2 C-1.34 1.34 -0.68 0.68 0 0 Z " fill="#EA6F2A" transform="translate(26,53)"/>
<path d="M0 0 C1.4540625 0.0309375 1.4540625 0.0309375 2.9375 0.0625 C3.5625 2.4375 3.5625 2.4375 3.9375 5.0625 C1.9375 7.0625 1.9375 7.0625 -0.625 7.25 C-3.0625 7.0625 -3.0625 7.0625 -4.0625 6.0625 C-4.1875 3.5625 -4.1875 3.5625 -4.0625 1.0625 C-3.0625 0.0625 -3.0625 0.0625 0 0 Z " fill="#E96F2A" transform="translate(36.0625,42.9375)"/>
<path d="M0 0 C1.67542976 0.28604898 3.34385343 0.61781233 5 1 C5.6875 2.8125 5.6875 2.8125 6 5 C4.5625 6.75 4.5625 6.75 3 8 C0.525 7.01 0.525 7.01 -2 6 C-1.125 1.125 -1.125 1.125 0 0 Z " fill="#E96F2A" transform="translate(23,43)"/>
<path d="M0 0 C2.625 0.9375 2.625 0.9375 5 2 C4.67 3.65 4.34 5.3 4 7 C1.625 7.625 1.625 7.625 -1 8 C-1.66 7.34 -2.32 6.68 -3 6 C-2.75 3.4375 -2.75 3.4375 -2 1 C-1.34 0.67 -0.68 0.34 0 0 Z " fill="#EA6F2A" transform="translate(100,27)"/>
<path d="M0 0 C0.598125 0.226875 1.19625 0.45375 1.8125 0.6875 C2.4375 3.0625 2.4375 3.0625 2.8125 5.6875 C2.1525 6.3475 1.4925 7.0075 0.8125 7.6875 C-1.8125 7.3125 -1.8125 7.3125 -4.1875 6.6875 C-4.875 4.875 -4.875 4.875 -5.1875 2.6875 C-3.58493056 0.24147296 -2.95482043 -0.4221172 0 0 Z " fill="#EA6F2A" transform="translate(70.1875,22.3125)"/>
<path d="M0 0 C2.625 0.375 2.625 0.375 5 1 C5.6875 2.8125 5.6875 2.8125 6 5 C4.8125 6.8125 4.8125 6.8125 3 8 C0.8125 7.6875 0.8125 7.6875 -1 7 C-1.625 4.625 -1.625 4.625 -2 2 C-1.34 1.34 -0.68 0.68 0 0 Z " fill="#EA6F2A" transform="translate(26,22)"/>
<path d="M0 0 C1.32 0.66 2.64 1.32 4 2 C4.042721 3.66611905 4.04063832 5.33382885 4 7 C3 8 3 8 0.5625 8.1875 C-2 8 -2 8 -4 6 C-3.8125 4 -3.8125 4 -3 2 C-2.01 1.34 -1.02 0.68 0 0 Z " fill="#EA6F2A" transform="translate(56,10)"/>
<path d="M0 0 C0.598125 0.226875 1.19625 0.45375 1.8125 0.6875 C2.4375 3.0625 2.4375 3.0625 2.8125 5.6875 C2.1525 6.3475 1.4925 7.0075 0.8125 7.6875 C-1.8125 7.3125 -1.8125 7.3125 -4.1875 6.6875 C-4.875 4.875 -4.875 4.875 -5.1875 2.6875 C-3.58493056 0.24147296 -2.95482043 -0.4221172 0 0 Z " fill="#EA6F2A" transform="translate(91.1875,9.3125)"/>
<path d="M0 0 C2.5625 0.1875 2.5625 0.1875 4.5625 2.1875 C4.02678571 5.72321429 4.02678571 5.72321429 2.5625 7.1875 C0.0625 7.3125 0.0625 7.3125 -2.4375 7.1875 C-3.4375 6.1875 -3.4375 6.1875 -3.5625 3.6875 C-3.39599509 0.35740177 -3.31519894 0.2550153 0 0 Z " fill="#EA6F2A" transform="translate(60.4375,76.8125)"/>
<path d="M0 0 C2.00720923 0.28674418 4.0085944 0.61866701 6 1 C6.125 3.375 6.125 3.375 6 6 C5.34 6.66 4.68 7.32 4 8 C1.375 7.625 1.375 7.625 -1 7 C-1.04254356 5.00045254 -1.04080783 2.99958364 -1 1 C-0.67 0.67 -0.34 0.34 0 0 Z " fill="#E96F29" transform="translate(69,76)"/>
<path d="M0 0 C1.98 0 3.96 0 6 0 C7.125 4.75 7.125 4.75 6 7 C4.02 7 2.04 7 0 7 C-1.125 2.25 -1.125 2.25 0 0 Z " fill="#EA6F2A" transform="translate(38,70)"/>
<path d="M0 0 C2.375 -0.125 2.375 -0.125 5 0 C5.66 0.66 6.32 1.32 7 2 C6.625 4.625 6.625 4.625 6 7 C4.02 7 2.04 7 0 7 C-1.125 2.25 -1.125 2.25 0 0 Z " fill="#EA6F2A" transform="translate(63,66)"/>
<path d="M0 0 C2.00720923 0.28674418 4.0085944 0.61866701 6 1 C6.125 3.375 6.125 3.375 6 6 C5.34 6.66 4.68 7.32 4 8 C1.375 7.625 1.375 7.625 -1 7 C-1.04254356 5.00045254 -1.04080783 2.99958364 -1 1 C-0.67 0.67 -0.34 0.34 0 0 Z " fill="#E96F2A" transform="translate(44,60)"/>
<path d="M0 0 C2.5 0.125 2.5 0.125 3.5 1.125 C3.625 3.625 3.625 3.625 3.5 6.125 C2.5 7.125 2.5 7.125 0.0625 7.3125 C-2.5 7.125 -2.5 7.125 -4.5 5.125 C-3.7519084 0.18759542 -3.7519084 0.18759542 0 0 Z " fill="#EA6F2A" transform="translate(84.5,56.875)"/>
<path d="M0 0 C3.53571429 0.53571429 3.53571429 0.53571429 5 2 C5.125 4.5 5.125 4.5 5 7 C4 8 4 8 1.5 8.125 C-1 8 -1 8 -2 7 C-2.1875 4.5625 -2.1875 4.5625 -2 2 C-1.34 1.34 -0.68 0.68 0 0 Z " fill="#E96F2A" transform="translate(38,52)"/>
<path d="M0 0 C2.5625 0.1875 2.5625 0.1875 4.5625 2.1875 C4.02678571 5.72321429 4.02678571 5.72321429 2.5625 7.1875 C0.0625 7.3125 0.0625 7.3125 -2.4375 7.1875 C-3.4375 6.1875 -3.4375 6.1875 -3.5625 3.6875 C-3.39599509 0.35740177 -3.31519894 0.2550153 0 0 Z " fill="#EA6F2A" transform="translate(39.4375,22.8125)"/>
<path d="M0 0 C2.5 0.125 2.5 0.125 3.5 1.125 C3.625 3.625 3.625 3.625 3.5 6.125 C2.5 7.125 2.5 7.125 0.0625 7.3125 C-2.5 7.125 -2.5 7.125 -4.5 5.125 C-3.7519084 0.18759542 -3.7519084 0.18759542 0 0 Z " fill="#EA6F2A" transform="translate(41.5,5.875)"/>
<path d="M0 0 C2.475 0.99 2.475 0.99 5 2 C5.042721 3.66611905 5.04063832 5.33382885 5 7 C4 8 4 8 1.5 8.125 C-1 8 -1 8 -2 7 C-2.1875 4.5625 -2.1875 4.5625 -2 2 C-1.34 1.34 -0.68 0.68 0 0 Z " fill="#EA6F2A" transform="translate(80,72)"/>
<path d="M0 0 C2.475 0.99 2.475 0.99 5 2 C5.042721 3.66611905 5.04063832 5.33382885 5 7 C4 8 4 8 1.5 8.125 C-1 8 -1 8 -2 7 C-2.1875 4.5625 -2.1875 4.5625 -2 2 C-1.34 1.34 -0.68 0.68 0 0 Z " fill="#E96F2A" transform="translate(67,53)"/>
<path d="M0 0 C2.375 -0.125 2.375 -0.125 5 0 C5.66 0.66 6.32 1.32 7 2 C6.625 4.625 6.625 4.625 6 7 C4.02 7 2.04 7 0 7 C-1.125 2.25 -1.125 2.25 0 0 Z " fill="#E96F2A" transform="translate(77,38)"/>
<path d="M0 0 C2.5625 -0.25 2.5625 -0.25 5 0 C6 1 6 1 6.125 3.5 C6 6 6 6 5 7 C3.33382885 7.04063832 1.66611905 7.042721 0 7 C-0.66 5.68 -1.32 4.36 -2 3 C-1.34 2.01 -0.68 1.02 0 0 Z " fill="#EA6F2A" transform="translate(75,29)"/>
<path d="M0 0 C1.67542976 0.28604898 3.34385343 0.61781233 5 1 C5 2.98 5 4.96 5 7 C2.625 7.625 2.625 7.625 0 8 C-0.66 7.34 -1.32 6.68 -2 6 C-1.44444444 1.44444444 -1.44444444 1.44444444 0 0 Z " fill="#EA6F2A" transform="translate(80,3)"/>
<path d="M0 0 C1.2065625 0.0309375 1.2065625 0.0309375 2.4375 0.0625 C3.0975 1.3825 3.7575 2.7025 4.4375 4.0625 C3.4475 5.5475 3.4475 5.5475 2.4375 7.0625 C-0.125 7.3125 -0.125 7.3125 -2.5625 7.0625 C-3.5625 6.0625 -3.5625 6.0625 -3.6875 3.5625 C-3.51717518 0.15600356 -3.41884482 0.08338646 0 0 Z " fill="#EA6F2A" transform="translate(55.5625,64.9375)"/>
<path d="M0 0 C1.67542976 0.28604898 3.34385343 0.61781233 5 1 C5 2.98 5 4.96 5 7 C2.625 7.625 2.625 7.625 0 8 C-0.66 7.34 -1.32 6.68 -2 6 C-1.44444444 1.44444444 -1.44444444 1.44444444 0 0 Z " fill="#EA6F2A" transform="translate(83,19)"/>
<path d="M0 0 C1.98 0 3.96 0 6 0 C6.625 2.375 6.625 2.375 7 5 C6.34 5.66 5.68 6.32 5 7 C2.375 6.625 2.375 6.625 0 6 C-1.125 2.25 -1.125 2.25 0 0 Z " fill="#EA6F2A" transform="translate(94,18)"/>
<path d="M0 0 C2.5 0.125 2.5 0.125 3.5 1.125 C3.54063832 2.79117115 3.542721 4.45888095 3.5 6.125 C1.52 7.115 1.52 7.115 -0.5 8.125 C-1.49 7.465 -2.48 6.805 -3.5 6.125 C-3.75 3.5625 -3.75 3.5625 -3.5 1.125 C-2.5 0.125 -2.5 0.125 0 0 Z " fill="#EA702A" transform="translate(50.5,0.875)"/>
<path d="M0 0 C2.5 0.125 2.5 0.125 3.5 1.125 C3.625 3.625 3.625 3.625 3.5 6.125 C2.5 7.125 2.5 7.125 0 7.25 C-2.5 7.125 -2.5 7.125 -3.5 6.125 C-3.625 3.625 -3.625 3.625 -3.5 1.125 C-2.5 0.125 -2.5 0.125 0 0 Z " fill="#EA6F2A" transform="translate(50.5,74.875)"/>
<path d="M0 0 C2.5 0.125 2.5 0.125 3.5 1.125 C3.625 3.625 3.625 3.625 3.5 6.125 C2.5 7.125 2.5 7.125 0 7.25 C-2.5 7.125 -2.5 7.125 -3.5 6.125 C-3.625 3.625 -3.625 3.625 -3.5 1.125 C-2.5 0.125 -2.5 0.125 0 0 Z " fill="#EA6F2A" transform="translate(102.5,37.875)"/>
<path d="M0 0 C2.5 0.125 2.5 0.125 3.5 1.125 C3.625 3.625 3.625 3.625 3.5 6.125 C2.5 7.125 2.5 7.125 0 7.25 C-2.5 7.125 -2.5 7.125 -3.5 6.125 C-3.625 3.625 -3.625 3.625 -3.5 1.125 C-2.5 0.125 -2.5 0.125 0 0 Z " fill="#EA6F2A" transform="translate(91.5,37.875)"/>
<path d="M0 0 C2.5 0.125 2.5 0.125 3.5 1.125 C3.625 3.625 3.625 3.625 3.5 6.125 C2.5 7.125 2.5 7.125 0 7.25 C-2.5 7.125 -2.5 7.125 -3.5 6.125 C-3.625 3.625 -3.625 3.625 -3.5 1.125 C-2.5 0.125 -2.5 0.125 0 0 Z " fill="#EA6F2A" transform="translate(50.5,27.875)"/>
<path d="M0 0 C2.5 0.125 2.5 0.125 3.5 1.125 C3.625 3.625 3.625 3.625 3.5 6.125 C2.5 7.125 2.5 7.125 0 7.25 C-2.5 7.125 -2.5 7.125 -3.5 6.125 C-3.625 3.625 -3.625 3.625 -3.5 1.125 C-2.5 0.125 -2.5 0.125 0 0 Z " fill="#EA6F2A" transform="translate(76.5,12.875)"/>
<path d="M0 0 C2.5 0.125 2.5 0.125 3.5 1.125 C3.625 3.625 3.625 3.625 3.5 6.125 C2.5 7.125 2.5 7.125 0 7.25 C-2.5 7.125 -2.5 7.125 -3.5 6.125 C-3.625 3.625 -3.625 3.625 -3.5 1.125 C-2.5 0.125 -2.5 0.125 0 0 Z " fill="#EA6F2A" transform="translate(66.5,9.875)"/>
<path d="M0 0 C2.5 0.125 2.5 0.125 3.5 1.125 C3.625 3.625 3.625 3.625 3.5 6.125 C2.5 7.125 2.5 7.125 0 7.25 C-2.5 7.125 -2.5 7.125 -3.5 6.125 C-3.625 3.625 -3.625 3.625 -3.5 1.125 C-2.5 0.125 -2.5 0.125 0 0 Z " fill="#EA6F2A" transform="translate(71.5,-0.125)"/>
<path d="M0 0 C1.4540625 0.0309375 1.4540625 0.0309375 2.9375 0.0625 C4.0625 3.8125 4.0625 3.8125 2.9375 6.0625 C0.9575 6.0625 -1.0225 6.0625 -3.0625 6.0625 C-3.44468767 4.40635343 -3.77645102 2.73792976 -4.0625 1.0625 C-3.0625 0.0625 -3.0625 0.0625 0 0 Z " fill="#EA6F2A" transform="translate(61.0625,-0.0625)"/>
</svg>
