<svg width="312" height="81" viewBox="0 0 312 81" fill="none" xmlns="http://www.w3.org/2000/svg">
<path d="M9.092 3.252C9.092 3.77467 8.966 4.26467 8.714 4.722C8.47133 5.17933 8.084 5.548 7.552 5.828C7.02933 6.108 6.36667 6.248 5.564 6.248H3.926V10H1.966V0.228H5.564C6.32 0.228 6.964 0.358666 7.496 0.62C8.028 0.881333 8.42467 1.24067 8.686 1.698C8.95667 2.15533 9.092 2.67333 9.092 3.252ZM5.48 4.666C6.02133 4.666 6.42267 4.54467 6.684 4.302C6.94533 4.05 7.076 3.7 7.076 3.252C7.076 2.3 6.544 1.824 5.48 1.824H3.926V4.666H5.48ZM12.4436 1.81V4.26H15.7336V5.814H12.4436V8.404H16.1536V10H10.4836V0.213999H16.1536V1.81H12.4436ZM22.9748 10L20.8188 6.192H19.8948V10H17.9348V0.228H21.6028C22.3588 0.228 23.0028 0.363333 23.5348 0.634C24.0668 0.895333 24.4634 1.25467 24.7248 1.712C24.9954 2.16 25.1308 2.664 25.1308 3.224C25.1308 3.868 24.9441 4.45133 24.5708 4.974C24.1974 5.48733 23.6421 5.842 22.9048 6.038L25.2428 10H22.9748ZM19.8948 4.722H21.5328C22.0648 4.722 22.4614 4.596 22.7228 4.344C22.9841 4.08267 23.1148 3.72333 23.1148 3.266C23.1148 2.818 22.9841 2.47267 22.7228 2.23C22.4614 1.978 22.0648 1.852 21.5328 1.852H19.8948V4.722ZM30.2775 10.098C29.5962 10.098 28.9802 9.98133 28.4295 9.748C27.8882 9.51467 27.4588 9.17867 27.1415 8.74C26.8242 8.30133 26.6608 7.78333 26.6515 7.186H28.7515C28.7795 7.58733 28.9195 7.90467 29.1715 8.138C29.4328 8.37133 29.7875 8.488 30.2355 8.488C30.6928 8.488 31.0522 8.38067 31.3135 8.166C31.5748 7.942 31.7055 7.65267 31.7055 7.298C31.7055 7.00867 31.6168 6.77067 31.4395 6.584C31.2622 6.39733 31.0382 6.25267 30.7675 6.15C30.5062 6.038 30.1422 5.91667 29.6755 5.786C29.0408 5.59933 28.5228 5.41733 28.1215 5.24C27.7295 5.05333 27.3888 4.778 27.0995 4.414C26.8195 4.04067 26.6795 3.546 26.6795 2.93C26.6795 2.35133 26.8242 1.84733 27.1135 1.418C27.4028 0.988666 27.8088 0.662 28.3315 0.438C28.8542 0.204666 29.4515 0.0879999 30.1235 0.0879999C31.1315 0.0879999 31.9482 0.335333 32.5735 0.83C33.2082 1.31533 33.5582 1.99667 33.6235 2.874H31.4675C31.4488 2.538 31.3042 2.26267 31.0335 2.048C30.7722 1.824 30.4222 1.712 29.9835 1.712C29.6008 1.712 29.2928 1.81 29.0595 2.006C28.8355 2.202 28.7235 2.48667 28.7235 2.86C28.7235 3.12133 28.8075 3.34067 28.9755 3.518C29.1528 3.686 29.3675 3.826 29.6195 3.938C29.8808 4.04067 30.2448 4.162 30.7115 4.302C31.3462 4.48867 31.8642 4.67533 32.2655 4.862C32.6668 5.04867 33.0122 5.32867 33.3015 5.702C33.5908 6.07533 33.7355 6.56533 33.7355 7.172C33.7355 7.69467 33.6002 8.18 33.3295 8.628C33.0588 9.076 32.6622 9.43533 32.1395 9.706C31.6168 9.96733 30.9962 10.098 30.2775 10.098ZM39.9708 10.098C39.0561 10.098 38.2161 9.88333 37.4508 9.454C36.6854 9.02467 36.0788 8.432 35.6308 7.676C35.1828 6.91067 34.9588 6.04733 34.9588 5.086C34.9588 4.134 35.1828 3.28 35.6308 2.524C36.0788 1.75867 36.6854 1.16133 37.4508 0.731999C38.2161 0.302666 39.0561 0.0879999 39.9708 0.0879999C40.8948 0.0879999 41.7348 0.302666 42.4908 0.731999C43.2561 1.16133 43.8581 1.75867 44.2968 2.524C44.7448 3.28 44.9688 4.134 44.9688 5.086C44.9688 6.04733 44.7448 6.91067 44.2968 7.676C43.8581 8.432 43.2561 9.02467 42.4908 9.454C41.7254 9.88333 40.8854 10.098 39.9708 10.098ZM39.9708 8.348C40.5588 8.348 41.0768 8.21733 41.5248 7.956C41.9728 7.68533 42.3228 7.30267 42.5748 6.808C42.8268 6.31333 42.9528 5.73933 42.9528 5.086C42.9528 4.43267 42.8268 3.86333 42.5748 3.378C42.3228 2.88333 41.9728 2.50533 41.5248 2.244C41.0768 1.98267 40.5588 1.852 39.9708 1.852C39.3828 1.852 38.8601 1.98267 38.4028 2.244C37.9548 2.50533 37.6048 2.88333 37.3528 3.378C37.1008 3.86333 36.9748 4.43267 36.9748 5.086C36.9748 5.73933 37.1008 6.31333 37.3528 6.808C37.6048 7.30267 37.9548 7.68533 38.4028 7.956C38.8601 8.21733 39.3828 8.348 39.9708 8.348ZM54.7849 10H52.8249L48.3869 3.294V10H46.4269V0.213999H48.3869L52.8249 6.934V0.213999H54.7849V10ZM62.7139 8.138H58.8219L58.1779 10H56.1199L59.6339 0.213999H61.9159L65.4299 10H63.3579L62.7139 8.138ZM62.1819 6.57L60.7679 2.482L59.3539 6.57H62.1819ZM68.7033 8.446H71.9233V10H66.7433V0.228H68.7033V8.446ZM75.1291 0.228V10H73.1691V0.228H75.1291ZM80.4396 10.098C79.7583 10.098 79.1423 9.98133 78.5916 9.748C78.0503 9.51467 77.6209 9.17867 77.3036 8.74C76.9863 8.30133 76.8229 7.78333 76.8136 7.186H78.9136C78.9416 7.58733 79.0816 7.90467 79.3336 8.138C79.5949 8.37133 79.9496 8.488 80.3976 8.488C80.8549 8.488 81.2143 8.38067 81.4756 8.166C81.7369 7.942 81.8676 7.65267 81.8676 7.298C81.8676 7.00867 81.7789 6.77067 81.6016 6.584C81.4243 6.39733 81.2003 6.25267 80.9296 6.15C80.6683 6.038 80.3043 5.91667 79.8376 5.786C79.2029 5.59933 78.6849 5.41733 78.2836 5.24C77.8916 5.05333 77.5509 4.778 77.2616 4.414C76.9816 4.04067 76.8416 3.546 76.8416 2.93C76.8416 2.35133 76.9863 1.84733 77.2756 1.418C77.5649 0.988666 77.9709 0.662 78.4936 0.438C79.0163 0.204666 79.6136 0.0879999 80.2856 0.0879999C81.2936 0.0879999 82.1103 0.335333 82.7356 0.83C83.3703 1.31533 83.7203 1.99667 83.7856 2.874H81.6296C81.6109 2.538 81.4663 2.26267 81.1956 2.048C80.9343 1.824 80.5843 1.712 80.1456 1.712C79.7629 1.712 79.4549 1.81 79.2216 2.006C78.9976 2.202 78.8856 2.48667 78.8856 2.86C78.8856 3.12133 78.9696 3.34067 79.1376 3.518C79.3149 3.686 79.5296 3.826 79.7816 3.938C80.0429 4.04067 80.4069 4.162 80.8736 4.302C81.5083 4.48867 82.0263 4.67533 82.4276 4.862C82.8289 5.04867 83.1743 5.32867 83.4636 5.702C83.7529 6.07533 83.8976 6.56533 83.8976 7.172C83.8976 7.69467 83.7623 8.18 83.4916 8.628C83.2209 9.076 82.8243 9.43533 82.3016 9.706C81.7789 9.96733 81.1583 10.098 80.4396 10.098ZM87.5569 1.81V4.26H90.8469V5.814H87.5569V8.404H91.2669V10H85.5969V0.213999H91.2669V1.81H87.5569ZM96.464 0.228C97.4907 0.228 98.3914 0.428666 99.166 0.83C99.95 1.23133 100.552 1.80533 100.972 2.552C101.401 3.28933 101.616 4.148 101.616 5.128C101.616 6.108 101.401 6.96667 100.972 7.704C100.552 8.432 99.95 8.99667 99.166 9.398C98.3914 9.79933 97.4907 10 96.464 10H93.048V0.228H96.464ZM96.394 8.334C97.4207 8.334 98.214 8.054 98.774 7.494C99.334 6.934 99.614 6.14533 99.614 5.128C99.614 4.11067 99.334 3.31733 98.774 2.748C98.214 2.16933 97.4207 1.88 96.394 1.88H95.008V8.334H96.394ZM113.545 3.252C113.545 3.77467 113.419 4.26467 113.167 4.722C112.924 5.17933 112.537 5.548 112.005 5.828C111.482 6.108 110.82 6.248 110.017 6.248H108.379V10H106.419V0.228H110.017C110.773 0.228 111.417 0.358666 111.949 0.62C112.481 0.881333 112.878 1.24067 113.139 1.698C113.41 2.15533 113.545 2.67333 113.545 3.252ZM109.933 4.666C110.474 4.666 110.876 4.54467 111.137 4.302C111.398 4.05 111.529 3.7 111.529 3.252C111.529 2.3 110.997 1.824 109.933 1.824H108.379V4.666H109.933ZM120.929 8.138H117.037L116.393 10H114.335L117.849 0.213999H120.131L123.645 10H121.573L120.929 8.138ZM120.397 6.57L118.983 2.482L117.569 6.57H120.397ZM131.608 0.228V1.81H129.004V10H127.044V1.81H124.44V0.228H131.608ZM134.998 0.228V10H133.038V0.228H134.998ZM138.895 1.81V4.26H142.185V5.814H138.895V8.404H142.605V10H136.935V0.213999H142.605V1.81H138.895ZM152.744 10H150.784L146.346 3.294V10H144.386V0.213999H146.346L150.784 6.934V0.213999H152.744V10ZM161.331 0.228V1.81H158.727V10H156.767V1.81H154.163V0.228H161.331ZM165.621 5.1C165.621 4.13867 165.836 3.28 166.265 2.524C166.704 1.75867 167.296 1.166 168.043 0.746C168.799 0.316666 169.644 0.102 170.577 0.102C171.669 0.102 172.626 0.382 173.447 0.942C174.268 1.502 174.842 2.27667 175.169 3.266H172.915C172.691 2.79933 172.374 2.44933 171.963 2.216C171.562 1.98267 171.095 1.866 170.563 1.866C169.994 1.866 169.485 2.00133 169.037 2.272C168.598 2.53333 168.253 2.90667 168.001 3.392C167.758 3.87733 167.637 4.44667 167.637 5.1C167.637 5.744 167.758 6.31333 168.001 6.808C168.253 7.29333 168.598 7.67133 169.037 7.942C169.485 8.20333 169.994 8.334 170.563 8.334C171.095 8.334 171.562 8.21733 171.963 7.984C172.374 7.74133 172.691 7.38667 172.915 6.92H175.169C174.842 7.91867 174.268 8.698 173.447 9.258C172.635 9.80867 171.678 10.084 170.577 10.084C169.644 10.084 168.799 9.874 168.043 9.454C167.296 9.02467 166.704 8.432 166.265 7.676C165.836 6.92 165.621 6.06133 165.621 5.1ZM182.835 8.138H178.943L178.299 10H176.241L179.755 0.213999H182.037L185.551 10H183.479L182.835 8.138ZM182.303 6.57L180.889 2.482L179.475 6.57H182.303ZM191.904 10L189.748 6.192H188.824V10H186.864V0.228H190.532C191.288 0.228 191.932 0.363333 192.464 0.634C192.996 0.895333 193.393 1.25467 193.654 1.712C193.925 2.16 194.06 2.664 194.06 3.224C194.06 3.868 193.874 4.45133 193.5 4.974C193.127 5.48733 192.572 5.842 191.834 6.038L194.172 10H191.904ZM188.824 4.722H190.462C190.994 4.722 191.391 4.596 191.652 4.344C191.914 4.08267 192.044 3.72333 192.044 3.266C192.044 2.818 191.914 2.47267 191.652 2.23C191.391 1.978 190.994 1.852 190.462 1.852H188.824V4.722ZM197.793 1.81V4.26H201.083V5.814H197.793V8.404H201.503V10H195.833V0.213999H201.503V1.81H197.793ZM8.8 25.152C10.576 25.152 12.128 25.504 13.456 26.208C14.784 26.912 15.808 27.904 16.528 29.184C17.264 30.448 17.632 31.912 17.632 33.576C17.632 35.224 17.264 36.688 16.528 37.968C15.808 39.248 14.776 40.24 13.432 40.944C12.104 41.648 10.56 42 8.8 42H2.488V25.152H8.8ZM8.536 38.448C10.088 38.448 11.296 38.024 12.16 37.176C13.024 36.328 13.456 35.128 13.456 33.576C13.456 32.024 13.024 30.816 12.16 29.952C11.296 29.088 10.088 28.656 8.536 28.656H6.592V38.448H8.536ZM19.1095 35.28C19.1095 33.904 19.3655 32.696 19.8775 31.656C20.4055 30.616 21.1175 29.816 22.0135 29.256C22.9095 28.696 23.9095 28.416 25.0135 28.416C25.9575 28.416 26.7815 28.608 27.4855 28.992C28.2055 29.376 28.7575 29.88 29.1415 30.504V28.608H33.2455V42H29.1415V40.104C28.7415 40.728 28.1815 41.232 27.4615 41.616C26.7575 42 25.9335 42.192 24.9895 42.192C23.9015 42.192 22.9095 41.912 22.0135 41.352C21.1175 40.776 20.4055 39.968 19.8775 38.928C19.3655 37.872 19.1095 36.656 19.1095 35.28ZM29.1415 35.304C29.1415 34.28 28.8535 33.472 28.2775 32.88C27.7175 32.288 27.0295 31.992 26.2135 31.992C25.3975 31.992 24.7015 32.288 24.1255 32.88C23.5655 33.456 23.2855 34.256 23.2855 35.28C23.2855 36.304 23.5655 37.12 24.1255 37.728C24.7015 38.32 25.3975 38.616 26.2135 38.616C27.0295 38.616 27.7175 38.32 28.2775 37.728C28.8535 37.136 29.1415 36.328 29.1415 35.304ZM43.6786 38.52V42H41.5906C40.1026 42 38.9426 41.64 38.1106 40.92C37.2786 40.184 36.8626 38.992 36.8626 37.344V32.016H35.2306V28.608H36.8626V25.344H40.9666V28.608H43.6546V32.016H40.9666V37.392C40.9666 37.792 41.0626 38.08 41.2546 38.256C41.4466 38.432 41.7666 38.52 42.2146 38.52H43.6786ZM45.1486 35.28C45.1486 33.904 45.4046 32.696 45.9166 31.656C46.4446 30.616 47.1566 29.816 48.0526 29.256C48.9486 28.696 49.9486 28.416 51.0526 28.416C51.9966 28.416 52.8206 28.608 53.5246 28.992C54.2446 29.376 54.7966 29.88 55.1806 30.504V28.608H59.2846V42H55.1806V40.104C54.7806 40.728 54.2206 41.232 53.5006 41.616C52.7966 42 51.9726 42.192 51.0286 42.192C49.9406 42.192 48.9486 41.912 48.0526 41.352C47.1566 40.776 46.4446 39.968 45.9166 38.928C45.4046 37.872 45.1486 36.656 45.1486 35.28ZM55.1806 35.304C55.1806 34.28 54.8926 33.472 54.3166 32.88C53.7566 32.288 53.0686 31.992 52.2526 31.992C51.4366 31.992 50.7406 32.288 50.1646 32.88C49.6046 33.456 49.3246 34.256 49.3246 35.28C49.3246 36.304 49.6046 37.12 50.1646 37.728C50.7406 38.32 51.4366 38.616 52.2526 38.616C53.0686 38.616 53.7566 38.32 54.3166 37.728C54.8926 37.136 55.1806 36.328 55.1806 35.304ZM72.5736 31.872V35.28H62.0136V31.872H72.5736ZM75.3595 35.28C75.3595 33.904 75.6155 32.696 76.1275 31.656C76.6555 30.616 77.3675 29.816 78.2635 29.256C79.1595 28.696 80.1595 28.416 81.2635 28.416C82.1435 28.416 82.9435 28.6 83.6635 28.968C84.3995 29.336 84.9755 29.832 85.3915 30.456V24.24H89.4955V42H85.3915V40.08C85.0075 40.72 84.4555 41.232 83.7355 41.616C83.0315 42 82.2075 42.192 81.2635 42.192C80.1595 42.192 79.1595 41.912 78.2635 41.352C77.3675 40.776 76.6555 39.968 76.1275 38.928C75.6155 37.872 75.3595 36.656 75.3595 35.28ZM85.3915 35.304C85.3915 34.28 85.1035 33.472 84.5275 32.88C83.9675 32.288 83.2795 31.992 82.4635 31.992C81.6475 31.992 80.9515 32.288 80.3755 32.88C79.8155 33.456 79.5355 34.256 79.5355 35.28C79.5355 36.304 79.8155 37.12 80.3755 37.728C80.9515 38.32 81.6475 38.616 82.4635 38.616C83.2795 38.616 83.9675 38.32 84.5275 37.728C85.1035 37.136 85.3915 36.328 85.3915 35.304ZM96.5686 30.84C97.0486 30.104 97.6486 29.528 98.3686 29.112C99.0886 28.68 99.8886 28.464 100.769 28.464V32.808H99.6406C98.6166 32.808 97.8486 33.032 97.3366 33.48C96.8246 33.912 96.5686 34.68 96.5686 35.784V42H92.4646V28.608H96.5686V30.84ZM104.794 27.216C104.074 27.216 103.482 27.008 103.018 26.592C102.57 26.16 102.346 25.632 102.346 25.008C102.346 24.368 102.57 23.84 103.018 23.424C103.482 22.992 104.074 22.776 104.794 22.776C105.498 22.776 106.074 22.992 106.522 23.424C106.986 23.84 107.218 24.368 107.218 25.008C107.218 25.632 106.986 26.16 106.522 26.592C106.074 27.008 105.498 27.216 104.794 27.216ZM106.834 28.608V42H102.73V28.608H106.834ZM115.832 38.16L118.736 28.608H123.104L118.352 42H113.288L108.536 28.608H112.928L115.832 38.16ZM137.456 35.088C137.456 35.472 137.432 35.872 137.384 36.288H128.096C128.16 37.12 128.424 37.76 128.888 38.208C129.368 38.64 129.952 38.856 130.64 38.856C131.664 38.856 132.376 38.424 132.776 37.56H137.144C136.92 38.44 136.512 39.232 135.92 39.936C135.344 40.64 134.616 41.192 133.736 41.592C132.856 41.992 131.872 42.192 130.784 42.192C129.472 42.192 128.304 41.912 127.28 41.352C126.256 40.792 125.456 39.992 124.88 38.952C124.304 37.912 124.016 36.696 124.016 35.304C124.016 33.912 124.296 32.696 124.856 31.656C125.432 30.616 126.232 29.816 127.256 29.256C128.28 28.696 129.456 28.416 130.784 28.416C132.08 28.416 133.232 28.688 134.24 29.232C135.248 29.776 136.032 30.552 136.592 31.56C137.168 32.568 137.456 33.744 137.456 35.088ZM133.256 34.008C133.256 33.304 133.016 32.744 132.536 32.328C132.056 31.912 131.456 31.704 130.736 31.704C130.048 31.704 129.464 31.904 128.984 32.304C128.52 32.704 128.232 33.272 128.12 34.008H133.256ZM147.781 28.464C149.349 28.464 150.597 28.976 151.525 30C152.469 31.008 152.941 32.4 152.941 34.176V42H148.861V34.728C148.861 33.832 148.629 33.136 148.165 32.64C147.701 32.144 147.077 31.896 146.293 31.896C145.509 31.896 144.885 32.144 144.421 32.64C143.957 33.136 143.725 33.832 143.725 34.728V42H139.621V28.608H143.725V30.384C144.141 29.792 144.701 29.328 145.405 28.992C146.109 28.64 146.901 28.464 147.781 28.464ZM166.327 42.192C165.159 42.192 164.119 41.992 163.207 41.592C162.295 41.192 161.575 40.648 161.047 39.96C160.519 39.256 160.223 38.472 160.159 37.608H164.215C164.263 38.072 164.479 38.448 164.863 38.736C165.247 39.024 165.719 39.168 166.279 39.168C166.791 39.168 167.183 39.072 167.455 38.88C167.743 38.672 167.887 38.408 167.887 38.088C167.887 37.704 167.687 37.424 167.287 37.248C166.887 37.056 166.239 36.848 165.343 36.624C164.383 36.4 163.583 36.168 162.943 35.928C162.303 35.672 161.751 35.28 161.287 34.752C160.823 34.208 160.591 33.48 160.591 32.568C160.591 31.8 160.799 31.104 161.215 30.48C161.647 29.84 162.271 29.336 163.087 28.968C163.919 28.6 164.903 28.416 166.039 28.416C167.719 28.416 169.039 28.832 169.999 29.664C170.975 30.496 171.535 31.6 171.679 32.976H167.887C167.823 32.512 167.615 32.144 167.263 31.872C166.927 31.6 166.479 31.464 165.919 31.464C165.439 31.464 165.071 31.56 164.815 31.752C164.559 31.928 164.431 32.176 164.431 32.496C164.431 32.88 164.631 33.168 165.031 33.36C165.447 33.552 166.087 33.744 166.951 33.936C167.943 34.192 168.751 34.448 169.375 34.704C169.999 34.944 170.543 35.344 171.007 35.904C171.487 36.448 171.735 37.184 171.751 38.112C171.751 38.896 171.527 39.6 171.079 40.224C170.647 40.832 170.015 41.312 169.183 41.664C168.367 42.016 167.415 42.192 166.327 42.192ZM180.357 42.192C179.045 42.192 177.861 41.912 176.805 41.352C175.765 40.792 174.941 39.992 174.333 38.952C173.741 37.912 173.445 36.696 173.445 35.304C173.445 33.928 173.749 32.72 174.357 31.68C174.965 30.624 175.797 29.816 176.853 29.256C177.909 28.696 179.093 28.416 180.405 28.416C181.717 28.416 182.901 28.696 183.957 29.256C185.013 29.816 185.845 30.624 186.453 31.68C187.061 32.72 187.365 33.928 187.365 35.304C187.365 36.68 187.053 37.896 186.429 38.952C185.821 39.992 184.981 40.792 183.909 41.352C182.853 41.912 181.669 42.192 180.357 42.192ZM180.357 38.64C181.141 38.64 181.805 38.352 182.349 37.776C182.909 37.2 183.189 36.376 183.189 35.304C183.189 34.232 182.917 33.408 182.373 32.832C181.845 32.256 181.189 31.968 180.405 31.968C179.605 31.968 178.941 32.256 178.413 32.832C177.885 33.392 177.621 34.216 177.621 35.304C177.621 36.376 177.877 37.2 178.389 37.776C178.917 38.352 179.573 38.64 180.357 38.64ZM193.647 24.24V42H189.543V24.24H193.647ZM209.845 28.608V42H205.741V40.176C205.325 40.768 204.757 41.248 204.037 41.616C203.333 41.968 202.549 42.144 201.685 42.144C200.661 42.144 199.757 41.92 198.973 41.472C198.189 41.008 197.581 40.344 197.149 39.48C196.717 38.616 196.501 37.6 196.501 36.432V28.608H200.581V35.88C200.581 36.776 200.813 37.472 201.277 37.968C201.741 38.464 202.365 38.712 203.149 38.712C203.949 38.712 204.581 38.464 205.045 37.968C205.509 37.472 205.741 36.776 205.741 35.88V28.608H209.845ZM220.257 38.52V42H218.169C216.681 42 215.521 41.64 214.689 40.92C213.857 40.184 213.441 38.992 213.441 37.344V32.016H211.809V28.608H213.441V25.344H217.545V28.608H220.233V32.016H217.545V37.392C217.545 37.792 217.641 38.08 217.833 38.256C218.025 38.432 218.345 38.52 218.793 38.52H220.257ZM224.607 27.216C223.887 27.216 223.295 27.008 222.831 26.592C222.383 26.16 222.159 25.632 222.159 25.008C222.159 24.368 222.383 23.84 222.831 23.424C223.295 22.992 223.887 22.776 224.607 22.776C225.311 22.776 225.887 22.992 226.335 23.424C226.799 23.84 227.031 24.368 227.031 25.008C227.031 25.632 226.799 26.16 226.335 26.592C225.887 27.008 225.311 27.216 224.607 27.216ZM226.647 28.608V42H222.543V28.608H226.647ZM235.717 42.192C234.405 42.192 233.221 41.912 232.165 41.352C231.125 40.792 230.301 39.992 229.693 38.952C229.101 37.912 228.805 36.696 228.805 35.304C228.805 33.928 229.109 32.72 229.717 31.68C230.325 30.624 231.157 29.816 232.213 29.256C233.269 28.696 234.453 28.416 235.765 28.416C237.077 28.416 238.261 28.696 239.317 29.256C240.373 29.816 241.205 30.624 241.813 31.68C242.421 32.72 242.725 33.928 242.725 35.304C242.725 36.68 242.413 37.896 241.789 38.952C241.181 39.992 240.341 40.792 239.269 41.352C238.213 41.912 237.029 42.192 235.717 42.192ZM235.717 38.64C236.501 38.64 237.165 38.352 237.709 37.776C238.269 37.2 238.549 36.376 238.549 35.304C238.549 34.232 238.277 33.408 237.733 32.832C237.205 32.256 236.549 31.968 235.765 31.968C234.965 31.968 234.301 32.256 233.773 32.832C233.245 33.392 232.981 34.216 232.981 35.304C232.981 36.376 233.237 37.2 233.749 37.776C234.277 38.352 234.933 38.64 235.717 38.64ZM253.062 28.464C254.63 28.464 255.878 28.976 256.806 30C257.75 31.008 258.222 32.4 258.222 34.176V42H254.142V34.728C254.142 33.832 253.91 33.136 253.446 32.64C252.982 32.144 252.358 31.896 251.574 31.896C250.79 31.896 250.166 32.144 249.702 32.64C249.238 33.136 249.006 33.832 249.006 34.728V42H244.902V28.608H249.006V30.384C249.422 29.792 249.982 29.328 250.686 28.992C251.39 28.64 252.182 28.464 253.062 28.464ZM266.522 42.192C265.354 42.192 264.314 41.992 263.402 41.592C262.49 41.192 261.77 40.648 261.242 39.96C260.714 39.256 260.418 38.472 260.354 37.608H264.41C264.458 38.072 264.674 38.448 265.058 38.736C265.442 39.024 265.914 39.168 266.474 39.168C266.986 39.168 267.378 39.072 267.65 38.88C267.938 38.672 268.082 38.408 268.082 38.088C268.082 37.704 267.882 37.424 267.482 37.248C267.082 37.056 266.434 36.848 265.538 36.624C264.578 36.4 263.778 36.168 263.138 35.928C262.498 35.672 261.946 35.28 261.482 34.752C261.018 34.208 260.786 33.48 260.786 32.568C260.786 31.8 260.994 31.104 261.41 30.48C261.842 29.84 262.466 29.336 263.282 28.968C264.114 28.6 265.098 28.416 266.234 28.416C267.914 28.416 269.234 28.832 270.194 29.664C271.17 30.496 271.73 31.6 271.874 32.976H268.082C268.018 32.512 267.81 32.144 267.458 31.872C267.122 31.6 266.674 31.464 266.114 31.464C265.634 31.464 265.266 31.56 265.01 31.752C264.754 31.928 264.626 32.176 264.626 32.496C264.626 32.88 264.826 33.168 265.226 33.36C265.642 33.552 266.282 33.744 267.146 33.936C268.138 34.192 268.946 34.448 269.57 34.704C270.194 34.944 270.738 35.344 271.202 35.904C271.682 36.448 271.93 37.184 271.946 38.112C271.946 38.896 271.722 39.6 271.274 40.224C270.842 40.832 270.21 41.312 269.378 41.664C268.562 42.016 267.61 42.192 266.522 42.192ZM286.263 32.016H284.055V42H279.951V32.016H278.463V28.608H279.951V28.224C279.951 26.576 280.423 25.328 281.367 24.48C282.311 23.616 283.695 23.184 285.519 23.184C285.823 23.184 286.047 23.192 286.191 23.208V26.688C285.407 26.64 284.855 26.752 284.535 27.024C284.215 27.296 284.055 27.784 284.055 28.488V28.608H286.263V32.016ZM294.287 42.192C292.975 42.192 291.791 41.912 290.735 41.352C289.695 40.792 288.871 39.992 288.263 38.952C287.671 37.912 287.375 36.696 287.375 35.304C287.375 33.928 287.679 32.72 288.287 31.68C288.895 30.624 289.727 29.816 290.783 29.256C291.839 28.696 293.023 28.416 294.335 28.416C295.647 28.416 296.831 28.696 297.887 29.256C298.943 29.816 299.775 30.624 300.383 31.68C300.991 32.72 301.295 33.928 301.295 35.304C301.295 36.68 300.983 37.896 300.359 38.952C299.751 39.992 298.911 40.792 297.839 41.352C296.783 41.912 295.599 42.192 294.287 42.192ZM294.287 38.64C295.071 38.64 295.735 38.352 296.279 37.776C296.839 37.2 297.119 36.376 297.119 35.304C297.119 34.232 296.847 33.408 296.303 32.832C295.775 32.256 295.119 31.968 294.335 31.968C293.535 31.968 292.871 32.256 292.343 32.832C291.815 33.392 291.551 34.216 291.551 35.304C291.551 36.376 291.807 37.2 292.319 37.776C292.847 38.352 293.503 38.64 294.287 38.64ZM307.576 30.84C308.056 30.104 308.656 29.528 309.376 29.112C310.096 28.68 310.896 28.464 311.776 28.464V32.808H310.648C309.624 32.808 308.856 33.032 308.344 33.48C307.832 33.912 307.576 34.68 307.576 35.784V42H303.472V28.608H307.576V30.84ZM16.168 60.608L7.768 80.36H3.352L6.424 73.544L0.976 60.608H5.56L8.656 68.984L11.728 60.608H16.168ZM23.7481 74.192C22.4361 74.192 21.2521 73.912 20.1961 73.352C19.1561 72.792 18.3321 71.992 17.7241 70.952C17.1321 69.912 16.8361 68.696 16.8361 67.304C16.8361 65.928 17.1401 64.72 17.7481 63.68C18.3561 62.624 19.1881 61.816 20.2441 61.256C21.3001 60.696 22.4841 60.416 23.7961 60.416C25.1081 60.416 26.2921 60.696 27.3481 61.256C28.4041 61.816 29.2361 62.624 29.8441 63.68C30.4521 64.72 30.7561 65.928 30.7561 67.304C30.7561 68.68 30.4441 69.896 29.8201 70.952C29.2121 71.992 28.3721 72.792 27.3001 73.352C26.2441 73.912 25.0601 74.192 23.7481 74.192ZM23.7481 70.64C24.5321 70.64 25.1961 70.352 25.7401 69.776C26.3001 69.2 26.5801 68.376 26.5801 67.304C26.5801 66.232 26.3081 65.408 25.7641 64.832C25.2361 64.256 24.5801 63.968 23.7961 63.968C22.9961 63.968 22.3321 64.256 21.8041 64.832C21.2761 65.392 21.0121 66.216 21.0121 67.304C21.0121 68.376 21.2681 69.2 21.7801 69.776C22.3081 70.352 22.9641 70.64 23.7481 70.64ZM46.1573 60.608V74H42.0533V72.176C41.6373 72.768 41.0693 73.248 40.3493 73.616C39.6453 73.968 38.8613 74.144 37.9973 74.144C36.9733 74.144 36.0693 73.92 35.2853 73.472C34.5013 73.008 33.8933 72.344 33.4613 71.48C33.0293 70.616 32.8133 69.6 32.8133 68.432V60.608H36.8933V67.88C36.8933 68.776 37.1253 69.472 37.5893 69.968C38.0533 70.464 38.6773 70.712 39.4613 70.712C40.2613 70.712 40.8933 70.464 41.3573 69.968C41.8213 69.472 42.0533 68.776 42.0533 67.88V60.608H46.1573ZM53.2092 62.84C53.6892 62.104 54.2892 61.528 55.0092 61.112C55.7292 60.68 56.5292 60.464 57.4092 60.464V64.808H56.2812C55.2572 64.808 54.4892 65.032 53.9772 65.48C53.4652 65.912 53.2092 66.68 53.2092 67.784V74H49.1052V60.608H53.2092V62.84ZM72.6888 60.464C74.2248 60.464 75.4568 60.976 76.3848 62C77.3128 63.008 77.7768 64.4 77.7768 66.176V74H73.6968V66.728C73.6968 65.832 73.4648 65.136 73.0008 64.64C72.5368 64.144 71.9128 63.896 71.1288 63.896C70.3448 63.896 69.7208 64.144 69.2568 64.64C68.7928 65.136 68.5608 65.832 68.5608 66.728V74H64.4568V56.24H68.5608V62.408C68.9768 61.816 69.5448 61.344 70.2648 60.992C70.9848 60.64 71.7928 60.464 72.6888 60.464ZM93.2526 67.088C93.2526 67.472 93.2286 67.872 93.1806 68.288H83.8926C83.9566 69.12 84.2206 69.76 84.6846 70.208C85.1646 70.64 85.7486 70.856 86.4366 70.856C87.4606 70.856 88.1726 70.424 88.5726 69.56H92.9406C92.7166 70.44 92.3086 71.232 91.7166 71.936C91.1406 72.64 90.4126 73.192 89.5326 73.592C88.6526 73.992 87.6686 74.192 86.5806 74.192C85.2686 74.192 84.1006 73.912 83.0766 73.352C82.0526 72.792 81.2526 71.992 80.6766 70.952C80.1006 69.912 79.8126 68.696 79.8126 67.304C79.8126 65.912 80.0926 64.696 80.6526 63.656C81.2286 62.616 82.0286 61.816 83.0526 61.256C84.0766 60.696 85.2526 60.416 86.5806 60.416C87.8766 60.416 89.0286 60.688 90.0366 61.232C91.0446 61.776 91.8286 62.552 92.3886 63.56C92.9646 64.568 93.2526 65.744 93.2526 67.088ZM89.0526 66.008C89.0526 65.304 88.8126 64.744 88.3326 64.328C87.8526 63.912 87.2526 63.704 86.5326 63.704C85.8446 63.704 85.2606 63.904 84.7806 64.304C84.3166 64.704 84.0286 65.272 83.9166 66.008H89.0526ZM94.6017 67.28C94.6017 65.904 94.8577 64.696 95.3697 63.656C95.8977 62.616 96.6097 61.816 97.5057 61.256C98.4017 60.696 99.4017 60.416 100.506 60.416C101.45 60.416 102.274 60.608 102.978 60.992C103.698 61.376 104.25 61.88 104.634 62.504V60.608H108.738V74H104.634V72.104C104.234 72.728 103.674 73.232 102.954 73.616C102.25 74 101.426 74.192 100.482 74.192C99.3937 74.192 98.4017 73.912 97.5057 73.352C96.6097 72.776 95.8977 71.968 95.3697 70.928C94.8577 69.872 94.6017 68.656 94.6017 67.28ZM104.634 67.304C104.634 66.28 104.346 65.472 103.77 64.88C103.21 64.288 102.522 63.992 101.706 63.992C100.89 63.992 100.194 64.288 99.6177 64.88C99.0577 65.456 98.7777 66.256 98.7777 67.28C98.7777 68.304 99.0577 69.12 99.6177 69.728C100.194 70.32 100.89 70.616 101.706 70.616C102.522 70.616 103.21 70.32 103.77 69.728C104.346 69.136 104.634 68.328 104.634 67.304ZM115.811 56.24V74H111.707V56.24H115.811ZM126.249 70.52V74H124.161C122.673 74 121.513 73.64 120.681 72.92C119.849 72.184 119.433 70.992 119.433 69.344V64.016H117.801V60.608H119.433V57.344H123.537V60.608H126.225V64.016H123.537V69.392C123.537 69.792 123.633 70.08 123.825 70.256C124.017 70.432 124.337 70.52 124.785 70.52H126.249ZM136.767 60.464C138.303 60.464 139.535 60.976 140.463 62C141.391 63.008 141.855 64.4 141.855 66.176V74H137.775V66.728C137.775 65.832 137.543 65.136 137.079 64.64C136.615 64.144 135.991 63.896 135.207 63.896C134.423 63.896 133.799 64.144 133.335 64.64C132.871 65.136 132.639 65.832 132.639 66.728V74H128.535V56.24H132.639V62.408C133.055 61.816 133.623 61.344 134.343 60.992C135.063 60.64 135.871 60.464 136.767 60.464ZM148.977 67.304C148.977 65.912 149.257 64.696 149.817 63.656C150.393 62.616 151.185 61.816 152.193 61.256C153.217 60.696 154.385 60.416 155.697 60.416C157.377 60.416 158.777 60.856 159.897 61.736C161.033 62.616 161.777 63.856 162.129 65.456H157.761C157.393 64.432 156.681 63.92 155.625 63.92C154.873 63.92 154.273 64.216 153.825 64.808C153.377 65.384 153.153 66.216 153.153 67.304C153.153 68.392 153.377 69.232 153.825 69.824C154.273 70.4 154.873 70.688 155.625 70.688C156.681 70.688 157.393 70.176 157.761 69.152H162.129C161.777 70.72 161.033 71.952 159.897 72.848C158.761 73.744 157.361 74.192 155.697 74.192C154.385 74.192 153.217 73.912 152.193 73.352C151.185 72.792 150.393 71.992 149.817 70.952C149.257 69.912 148.977 68.696 148.977 67.304ZM163.508 67.28C163.508 65.904 163.764 64.696 164.276 63.656C164.804 62.616 165.516 61.816 166.412 61.256C167.308 60.696 168.308 60.416 169.412 60.416C170.356 60.416 171.18 60.608 171.884 60.992C172.604 61.376 173.156 61.88 173.54 62.504V60.608H177.644V74H173.54V72.104C173.14 72.728 172.58 73.232 171.86 73.616C171.156 74 170.332 74.192 169.388 74.192C168.3 74.192 167.308 73.912 166.412 73.352C165.516 72.776 164.804 71.968 164.276 70.928C163.764 69.872 163.508 68.656 163.508 67.28ZM173.54 67.304C173.54 66.28 173.252 65.472 172.676 64.88C172.116 64.288 171.428 63.992 170.612 63.992C169.796 63.992 169.1 64.288 168.524 64.88C167.964 65.456 167.684 66.256 167.684 67.28C167.684 68.304 167.964 69.12 168.524 69.728C169.1 70.32 169.796 70.616 170.612 70.616C171.428 70.616 172.116 70.32 172.676 69.728C173.252 69.136 173.54 68.328 173.54 67.304ZM184.717 62.84C185.197 62.104 185.797 61.528 186.517 61.112C187.237 60.68 188.037 60.464 188.917 60.464V64.808H187.789C186.765 64.808 185.997 65.032 185.485 65.48C184.973 65.912 184.717 66.68 184.717 67.784V74H180.613V60.608H184.717V62.84ZM203.503 67.088C203.503 67.472 203.479 67.872 203.431 68.288H194.143C194.207 69.12 194.471 69.76 194.935 70.208C195.415 70.64 195.999 70.856 196.687 70.856C197.711 70.856 198.423 70.424 198.823 69.56H203.191C202.967 70.44 202.559 71.232 201.967 71.936C201.391 72.64 200.663 73.192 199.783 73.592C198.903 73.992 197.919 74.192 196.831 74.192C195.519 74.192 194.351 73.912 193.327 73.352C192.303 72.792 191.503 71.992 190.927 70.952C190.351 69.912 190.063 68.696 190.063 67.304C190.063 65.912 190.343 64.696 190.903 63.656C191.479 62.616 192.279 61.816 193.303 61.256C194.327 60.696 195.503 60.416 196.831 60.416C198.127 60.416 199.279 60.688 200.287 61.232C201.295 61.776 202.079 62.552 202.639 63.56C203.215 64.568 203.503 65.744 203.503 67.088ZM199.303 66.008C199.303 65.304 199.063 64.744 198.583 64.328C198.103 63.912 197.503 63.704 196.783 63.704C196.095 63.704 195.511 63.904 195.031 64.304C194.567 64.704 194.279 65.272 194.167 66.008H199.303ZM218.914 60.464C220.482 60.464 221.73 60.976 222.658 62C223.602 63.008 224.074 64.4 224.074 66.176V74H219.994V66.728C219.994 65.832 219.762 65.136 219.298 64.64C218.834 64.144 218.21 63.896 217.426 63.896C216.642 63.896 216.018 64.144 215.554 64.64C215.09 65.136 214.858 65.832 214.858 66.728V74H210.754V60.608H214.858V62.384C215.274 61.792 215.834 61.328 216.538 60.992C217.242 60.64 218.034 60.464 218.914 60.464ZM239.549 67.088C239.549 67.472 239.526 67.872 239.478 68.288H230.19C230.254 69.12 230.518 69.76 230.982 70.208C231.462 70.64 232.046 70.856 232.734 70.856C233.758 70.856 234.47 70.424 234.87 69.56H239.238C239.014 70.44 238.606 71.232 238.014 71.936C237.438 72.64 236.71 73.192 235.83 73.592C234.95 73.992 233.966 74.192 232.878 74.192C231.566 74.192 230.398 73.912 229.374 73.352C228.35 72.792 227.55 71.992 226.974 70.952C226.398 69.912 226.11 68.696 226.11 67.304C226.11 65.912 226.39 64.696 226.95 63.656C227.526 62.616 228.326 61.816 229.35 61.256C230.374 60.696 231.55 60.416 232.878 60.416C234.174 60.416 235.326 60.688 236.334 61.232C237.342 61.776 238.126 62.552 238.686 63.56C239.262 64.568 239.549 65.744 239.549 67.088ZM235.35 66.008C235.35 65.304 235.11 64.744 234.63 64.328C234.15 63.912 233.55 63.704 232.83 63.704C232.142 63.704 231.558 63.904 231.078 64.304C230.614 64.704 230.326 65.272 230.214 66.008H235.35ZM254.339 67.088C254.339 67.472 254.315 67.872 254.267 68.288H244.979C245.043 69.12 245.307 69.76 245.771 70.208C246.251 70.64 246.835 70.856 247.523 70.856C248.547 70.856 249.259 70.424 249.659 69.56H254.027C253.803 70.44 253.395 71.232 252.803 71.936C252.227 72.64 251.499 73.192 250.619 73.592C249.739 73.992 248.755 74.192 247.667 74.192C246.355 74.192 245.187 73.912 244.163 73.352C243.139 72.792 242.339 71.992 241.763 70.952C241.187 69.912 240.899 68.696 240.899 67.304C240.899 65.912 241.179 64.696 241.739 63.656C242.315 62.616 243.115 61.816 244.139 61.256C245.163 60.696 246.339 60.416 247.667 60.416C248.963 60.416 250.115 60.688 251.123 61.232C252.131 61.776 252.915 62.552 253.475 63.56C254.051 64.568 254.339 65.744 254.339 67.088ZM250.139 66.008C250.139 65.304 249.899 64.744 249.419 64.328C248.939 63.912 248.339 63.704 247.619 63.704C246.931 63.704 246.347 63.904 245.867 64.304C245.403 64.704 245.115 65.272 245.003 66.008H250.139ZM255.688 67.28C255.688 65.904 255.944 64.696 256.456 63.656C256.984 62.616 257.696 61.816 258.592 61.256C259.488 60.696 260.488 60.416 261.592 60.416C262.472 60.416 263.272 60.6 263.992 60.968C264.728 61.336 265.304 61.832 265.72 62.456V56.24H269.824V74H265.72V72.08C265.336 72.72 264.784 73.232 264.064 73.616C263.36 74 262.536 74.192 261.592 74.192C260.488 74.192 259.488 73.912 258.592 73.352C257.696 72.776 256.984 71.968 256.456 70.928C255.944 69.872 255.688 68.656 255.688 67.28ZM265.72 67.304C265.72 66.28 265.432 65.472 264.856 64.88C264.296 64.288 263.608 63.992 262.792 63.992C261.976 63.992 261.28 64.288 260.704 64.88C260.144 65.456 259.864 66.256 259.864 67.28C259.864 68.304 260.144 69.12 260.704 69.728C261.28 70.32 261.976 70.616 262.792 70.616C263.608 70.616 264.296 70.32 264.856 69.728C265.432 69.136 265.72 68.328 265.72 67.304ZM278.241 74.192C277.073 74.192 276.033 73.992 275.121 73.592C274.209 73.192 273.489 72.648 272.961 71.96C272.433 71.256 272.137 70.472 272.073 69.608H276.129C276.177 70.072 276.393 70.448 276.777 70.736C277.161 71.024 277.633 71.168 278.193 71.168C278.705 71.168 279.097 71.072 279.369 70.88C279.657 70.672 279.801 70.408 279.801 70.088C279.801 69.704 279.601 69.424 279.201 69.248C278.801 69.056 278.153 68.848 277.257 68.624C276.297 68.4 275.497 68.168 274.857 67.928C274.217 67.672 273.665 67.28 273.201 66.752C272.737 66.208 272.505 65.48 272.505 64.568C272.505 63.8 272.713 63.104 273.129 62.48C273.561 61.84 274.185 61.336 275.001 60.968C275.833 60.6 276.817 60.416 277.953 60.416C279.633 60.416 280.953 60.832 281.913 61.664C282.889 62.496 283.449 63.6 283.593 64.976H279.801C279.737 64.512 279.529 64.144 279.177 63.872C278.841 63.6 278.393 63.464 277.833 63.464C277.353 63.464 276.985 63.56 276.729 63.752C276.473 63.928 276.345 64.176 276.345 64.496C276.345 64.88 276.545 65.168 276.945 65.36C277.361 65.552 278.001 65.744 278.865 65.936C279.857 66.192 280.665 66.448 281.289 66.704C281.913 66.944 282.457 67.344 282.921 67.904C283.401 68.448 283.649 69.184 283.665 70.112C283.665 70.896 283.441 71.6 282.993 72.224C282.561 72.832 281.929 73.312 281.097 73.664C280.281 74.016 279.329 74.192 278.241 74.192ZM288.096 74.192C287.376 74.192 286.784 73.984 286.32 73.568C285.872 73.136 285.648 72.608 285.648 71.984C285.648 71.344 285.872 70.808 286.32 70.376C286.784 69.944 287.376 69.728 288.096 69.728C288.8 69.728 289.376 69.944 289.824 70.376C290.288 70.808 290.52 71.344 290.52 71.984C290.52 72.608 290.288 73.136 289.824 73.568C289.376 73.984 288.8 74.192 288.096 74.192Z" fill="black"/>
</svg>
